<?xml version="1.0" standalone="no"?>
<!DOCTYPE svg PUBLIC "-//W3C//DTD SVG 20010904//EN"
 "http://www.w3.org/TR/2001/REC-SVG-20010904/DTD/svg10.dtd">
<svg version="1.0" xmlns="http://www.w3.org/2000/svg"
 width="512.000000pt" height="512.000000pt" viewBox="0 0 512.000000 512.000000"
 preserveAspectRatio="xMidYMid meet">
<metadata>
Created by potrace 1.14, written by Peter Selinger 2001-2017
</metadata>
<g transform="translate(0.000000,512.000000) scale(0.100000,-0.100000)"
fill="#000000" stroke="none">
<path d="M493 5105 c-159 -43 -282 -173 -313 -330 -5 -31 -9 -693 -9 -1710 -1
-1786 -3 -1703 50 -1811 31 -61 116 -147 177 -178 73 -36 111 -46 195 -49 42
-2 79 -5 81 -8 3 -3 8 -41 11 -84 3 -44 10 -96 17 -115 62 -194 220 -306 438
-309 l55 -1 1 -70 c3 -160 69 -285 192 -367 115 -76 8 -72 1688 -72 1360 -1
1506 1 1560 16 32 9 66 22 75 30 8 7 21 13 27 13 7 0 41 29 77 64 70 68 108
137 125 222 5 30 9 695 9 1709 1 1376 -2 1669 -13 1712 -40 151 -147 263 -298
312 -21 7 -71 13 -112 15 -41 1 -78 5 -82 8 -3 4 -8 43 -10 88 -2 44 -8 90
-14 100 -6 11 -8 20 -5 20 16 0 -63 129 -103 169 -90 90 -185 126 -338 130
l-50 1 1 58 c2 125 -44 244 -129 327 -47 45 -72 61 -171 106 -45 21 -3055 24
-3132 4z"/>
</g>
</svg>
